{"glyphs":{":":{"x_min":0,"x_max":212,"ha":212,"o":"m 106 302 q 80 302 63 320 q 46 338 46 362 q 46 387 63 404 q 80 422 106 422 q 130 422 148 404 q 165 387 165 362 q 165 338 148 320 q 130 302 106 302 z m 106 -6 q 80 -6 63 12 q 46 30 46 54 q 46 79 63 96 q 80 114 106 114 q 130 114 148 96 q 165 79 165 54 q 165 30 148 12 q 130 -6 106 -6 z"},"$":{"x_min":0,"x_max":517,"ha":517,"o":"m 270 -52 q 258 -52 249 -45 q 240 -38 240 -29 l 240 2 q 179 3 132 22 q 85 41 58 68 q 32 95 32 120 q 32 132 38 145 q 45 158 56 168 q 67 177 79 177 q 91 177 104 166 q 116 156 134 142 q 151 127 176 114 q 202 102 240 99 l 240 334 q 207 346 174 360 q 140 374 112 396 q 84 417 67 450 q 50 482 50 530 q 50 578 66 611 q 82 644 110 666 q 137 688 171 700 q 205 712 240 716 l 240 745 q 240 755 249 762 q 258 768 270 768 q 281 768 290 762 q 300 755 300 745 l 300 718 q 325 717 354 712 q 382 708 407 700 q 432 691 448 678 q 464 664 464 646 q 464 636 459 623 q 454 610 444 600 q 435 589 420 589 q 408 589 394 597 q 379 605 357 614 q 335 624 300 626 l 300 423 q 332 411 364 395 q 397 379 424 356 q 450 333 466 298 q 482 262 482 211 q 482 119 432 68 q 381 16 300 5 l 300 -29 q 300 -38 290 -45 q 281 -52 270 -52 z m 294 101 q 335 109 358 134 q 382 158 382 200 q 382 232 370 252 q 358 273 338 288 q 318 302 294 312 z m 246 442 l 246 624 q 219 621 197 611 q 175 601 162 584 q 150 566 150 540 q 150 512 163 494 q 176 475 198 464 q 220 452 246 442 z"},"?":{"x_min":0,"x_max":424,"ha":424,"o":"m 185 188 q 164 188 155 198 q 146 207 146 234 q 146 284 154 316 q 161 347 174 366 q 187 385 200 398 q 214 412 232 427 q 250 442 267 460 q 284 478 296 502 q 307 525 307 556 q 307 604 276 630 q 245 657 191 657 q 156 657 136 648 q 117 639 106 626 q 95 614 86 604 q 77 595 63 595 q 50 595 36 606 q 22 616 22 636 q 22 657 42 681 q 63 705 102 722 q 141 738 195 738 q 258 738 302 716 q 347 693 371 654 q 395 615 395 566 q 395 524 380 492 q 365 459 344 434 q 324 408 304 390 q 283 372 270 359 q 249 340 240 320 q 231 299 229 275 q 227 251 227 219 q 227 207 218 198 q 209 188 185 188 z m 186 -6 q 160 -6 143 12 q 126 30 126 54 q 126 79 144 96 q 161 114 186 114 q 210 114 228 96 q 245 79 245 54 q 245 30 228 12 q 211 -6 186 -6 z"},"<":{"x_min":0,"x_max":414,"ha":414,"o":"m 323 61 q 314 61 309 65 l 46 237 q 34 244 29 256 q 24 267 24 277 q 24 287 30 298 q 35 310 46 318 l 309 490 q 314 494 323 494 q 340 494 356 480 q 371 466 371 444 q 371 424 357 415 l 147 277 l 357 139 q 371 131 371 110 q 371 89 356 75 q 340 61 323 61 z"},"'":{"x_min":0,"x_max":147,"ha":147,"o":"m 73 568 q 56 568 48 578 q 41 587 41 598 l 31 739 q 31 753 44 760 q 58 768 73 768 q 88 768 102 760 q 115 753 115 739 l 105 598 q 105 587 98 578 q 90 568 73 568 z"},"=":{"x_min":0,"x_max":441,"ha":441,"o":"m 92 311 q 77 311 68 324 q 58 336 58 355 q 58 374 68 387 q 77 400 92 400 l 348 400 q 362 400 373 387 q 384 374 384 355 q 384 336 373 324 q 362 311 348 311 z m 92 108 q 77 108 68 120 q 58 133 58 152 q 58 171 68 184 q 77 197 92 197 l 348 197 q 362 197 373 184 q 384 171 384 152 q 384 133 373 120 q 362 108 348 108 z"},"a":{"x_min":0,"x_max":459,"ha":459,"o":"m 158 -8 q 103 -8 64 24 q 25 57 25 124 q 25 181 55 212 q 85 243 138 255 q 190 267 259 267 l 303 267 l 303 285 q 303 311 294 336 q 284 360 262 376 q 241 393 204 393 q 167 393 147 386 q 127 379 115 371 q 103 363 93 363 q 75 363 65 380 q 55 398 55 416 q 55 434 78 448 q 102 463 137 472 q 172 480 206 480 q 280 480 324 452 q 368 425 388 381 q 408 337 408 286 l 408 35 q 408 21 394 10 q 379 0 357 0 q 337 0 323 10 q 309 21 309 35 l 309 70 q 283 40 246 16 q 209 -8 158 -8 z m 196 72 q 221 72 246 87 q 270 102 286 125 q 303 148 303 172 l 303 209 l 278 209 q 240 209 206 204 q 172 200 152 184 q 131 169 131 137 q 131 103 150 88 q 168 72 196 72 z"},"L":{"x_min":0,"x_max":475,"ha":475,"o":"m 113 0 q 96 0 81 9 q 66 18 66 35 l 66 697 q 66 715 82 723 q 99 731 119 731 q 139 731 156 723 q 172 715 172 697 l 172 94 l 432 94 q 448 94 456 80 q 464 65 464 47 q 464 30 456 15 q 448 0 432 0 z"},"3":{"x_min":0,"x_max":509,"ha":509,"o":"m 244 -6 q 186 -6 144 10 q 102 26 75 52 q 48 78 36 109 q 23 140 23 170 q 23 197 34 206 q 46 215 73 215 q 105 215 116 206 q 127 196 127 175 q 127 159 134 144 q 142 128 156 116 q 170 103 192 96 q 215 88 245 88 q 307 88 336 118 q 366 147 366 212 l 366 231 q 366 291 332 316 q 299 340 245 340 q 226 340 218 354 q 210 367 210 382 q 210 399 218 412 q 226 425 244 425 q 275 425 298 434 q 322 442 335 466 q 348 490 348 535 q 348 590 322 614 q 297 638 248 638 q 218 638 198 631 q 178 624 166 612 q 154 600 149 586 q 144 572 144 556 q 144 537 134 525 q 123 513 94 513 q 71 513 59 517 q 47 521 43 532 q 39 543 39 562 q 39 586 49 616 q 59 645 82 672 q 106 698 147 714 q 188 731 249 731 q 308 731 353 714 q 398 697 424 658 q 450 619 450 553 q 450 490 428 446 q 407 403 370 386 q 414 369 443 332 q 472 295 472 231 l 472 212 q 472 133 442 85 q 411 37 359 16 q 307 -6 244 -6 z"},";":{"x_min":0,"x_max":212,"ha":212,"o":"m 90 -94 q 78 -94 66 -86 q 54 -79 54 -66 q 54 -59 57 -53 l 79 0 q 64 7 54 22 q 45 36 45 54 q 45 79 62 96 q 79 114 104 114 q 128 114 146 97 q 163 80 163 54 q 163 51 162 45 q 161 39 156 26 q 152 13 142 -12 q 132 -37 114 -79 q 111 -87 104 -90 q 97 -94 90 -94 z m 108 302 q 83 302 66 320 q 49 338 49 362 q 49 387 66 404 q 83 422 108 422 q 132 422 150 404 q 167 387 167 362 q 167 338 150 320 q 132 302 108 302 z"},"J":{"x_min":0,"x_max":526,"ha":526,"o":"m 242 -6 q 176 -6 124 18 q 72 41 43 84 q 14 127 14 185 q 14 215 28 226 q 41 236 67 236 q 88 236 104 228 q 119 221 120 201 q 121 172 133 146 q 145 120 171 104 q 197 88 238 88 q 295 88 326 120 q 358 151 358 217 l 358 637 l 241 637 q 224 637 215 652 q 206 666 206 685 q 206 701 214 716 q 222 731 241 731 l 416 731 q 435 731 450 722 q 464 713 464 696 l 464 217 q 464 136 434 87 q 404 38 354 16 q 304 -6 242 -6 z"},"V":{"x_min":0,"x_max":560,"ha":560,"o":"m 280 -6 q 258 -6 238 3 q 219 12 213 30 l 14 678 q 12 684 12 687 q 12 700 22 710 q 33 719 48 725 q 64 731 78 731 q 92 731 102 726 q 112 721 115 709 l 280 139 l 444 709 q 448 721 458 726 q 468 731 481 731 q 496 731 511 725 q 526 719 536 710 q 547 700 547 687 q 547 685 546 683 q 546 681 546 678 l 348 30 q 342 12 322 3 q 303 -6 280 -6 z"},"\"":{"x_min":0,"x_max":290,"ha":290,"o":"m 216 568 q 199 568 192 578 q 185 587 185 598 l 175 739 q 175 753 188 760 q 201 768 216 768 q 232 768 246 760 q 259 753 259 739 l 249 598 q 249 587 241 578 q 233 568 216 568 z m 73 568 q 56 568 48 578 q 41 587 41 598 l 31 739 q 31 753 44 760 q 58 768 73 768 q 88 768 102 760 q 115 753 115 739 l 105 598 q 105 587 98 578 q 90 568 73 568 z"},"7":{"x_min":0,"x_max":483,"ha":483,"o":"m 150 -3 q 134 -3 118 4 q 103 10 94 22 q 84 34 84 49 q 84 58 89 69 l 364 575 l 364 637 l 127 637 l 127 543 q 127 528 110 518 q 94 508 73 508 q 52 508 36 518 q 21 528 21 543 l 21 696 q 21 709 36 720 q 50 731 68 731 l 423 731 q 439 731 454 720 q 470 709 470 696 l 470 593 q 470 581 464 564 q 458 548 451 534 l 182 13 q 173 -3 150 -3 z"},"S":{"x_min":0,"x_max":511,"ha":511,"o":"m 250 -8 q 185 -8 135 11 q 85 30 57 58 q 29 85 29 110 q 29 122 36 135 q 42 148 52 158 q 63 167 75 167 q 89 167 102 156 q 114 144 132 128 q 150 112 177 100 q 204 88 246 88 q 282 88 310 100 q 339 111 356 134 q 372 158 372 194 q 372 232 354 257 q 337 282 308 299 q 278 316 244 330 q 210 344 175 360 q 140 376 111 398 q 82 421 64 456 q 47 490 47 542 q 47 597 68 634 q 88 671 122 693 q 156 715 197 724 q 238 734 278 734 q 303 734 334 730 q 364 727 393 718 q 422 710 441 696 q 460 682 460 662 q 460 652 455 638 q 450 625 440 615 q 431 605 416 605 q 403 605 387 614 q 371 624 346 634 q 320 643 278 643 q 242 643 214 633 q 185 623 169 604 q 153 584 153 552 q 153 520 170 500 q 188 479 217 464 q 246 450 280 437 q 315 424 350 406 q 384 389 414 364 q 443 339 460 300 q 478 262 478 205 q 478 133 448 86 q 419 38 368 15 q 316 -8 250 -8 z"},"}":{"x_min":0,"x_max":340,"ha":340,"o":"m 74 -20 q 47 -20 31 -8 q 15 3 15 26 q 15 35 18 46 q 21 56 28 64 q 36 71 50 71 q 64 71 84 74 q 104 78 124 86 q 143 95 156 110 q 168 125 168 149 q 168 159 165 185 q 162 211 159 241 q 156 271 153 296 q 150 322 150 331 q 150 351 163 366 q 176 381 186 384 q 176 387 163 402 q 150 418 150 438 q 150 446 153 466 q 156 486 159 510 q 162 534 165 554 q 168 575 168 585 q 168 615 150 636 q 131 656 104 666 q 76 677 50 677 q 33 677 24 692 q 15 706 15 721 q 15 738 28 753 q 40 768 73 768 q 111 768 148 754 q 184 740 212 716 q 240 693 257 662 q 274 632 274 599 q 274 587 271 565 q 268 543 265 520 q 262 496 259 476 q 256 457 256 449 q 256 436 265 432 q 274 427 286 424 q 298 422 307 414 q 316 406 316 386 q 316 365 307 357 q 298 349 286 346 q 274 344 265 340 q 256 335 256 320 q 256 314 258 297 q 260 280 263 257 q 266 234 268 210 q 270 187 272 168 q 274 148 274 138 q 274 91 245 56 q 216 20 171 0 q 126 -20 74 -20 z"},"Z":{"x_min":0,"x_max":506,"ha":506,"o":"m 50 0 q 33 0 25 9 q 17 18 17 31 q 17 49 28 68 l 338 637 l 67 637 q 51 637 42 651 q 32 665 32 684 q 32 701 40 716 q 49 731 67 731 l 440 731 q 457 731 466 722 q 474 714 474 701 q 474 684 462 662 l 152 94 l 455 94 q 472 94 481 79 q 490 64 490 47 q 490 30 481 15 q 472 0 455 0 z"},"x":{"x_min":0,"x_max":446,"ha":446,"o":"m 88 -8 q 76 -8 60 0 q 45 7 34 19 q 22 31 22 44 q 22 54 28 63 l 152 241 l 35 409 q 32 412 30 417 q 28 422 28 427 q 28 440 40 452 q 51 464 67 472 q 83 480 96 480 q 101 480 109 478 q 117 476 122 468 l 223 308 l 325 467 q 330 475 338 478 q 345 480 352 480 q 364 480 380 472 q 396 465 408 452 q 419 440 419 427 q 419 419 412 409 l 294 240 l 418 63 q 421 60 423 55 q 425 50 425 44 q 425 33 414 20 q 403 8 388 0 q 372 -8 358 -8 q 351 -8 344 -6 q 336 -3 332 4 l 223 169 l 115 4 q 111 -2 102 -5 q 94 -8 88 -8 z"},")":{"x_min":0,"x_max":325,"ha":325,"o":"m 71 -20 q 38 -20 28 -7 q 17 6 17 26 q 17 43 24 58 q 30 73 51 73 q 77 73 103 80 q 129 87 148 106 q 166 125 166 160 l 166 574 q 166 599 152 622 q 139 645 114 660 q 88 675 51 675 q 36 675 26 688 q 17 701 17 722 q 17 741 28 754 q 39 768 68 768 q 107 768 143 754 q 179 740 208 714 q 237 687 254 652 q 272 616 272 574 l 272 160 q 272 114 255 80 q 238 46 209 24 q 180 1 144 -10 q 109 -20 71 -20 z"},"&":{"x_min":0,"x_max":630,"ha":630,"o":"m 270 -10 q 195 -10 140 20 q 86 50 57 100 q 28 149 28 207 q 28 255 46 294 q 64 333 94 362 q 124 392 156 409 q 127 443 105 481 q 83 519 83 571 q 83 628 110 668 q 136 707 182 728 q 227 748 281 748 q 339 748 380 729 q 422 710 444 684 q 465 659 465 639 q 465 620 450 605 q 434 590 415 590 q 401 590 390 601 q 380 612 367 626 q 354 641 334 652 q 315 662 283 662 q 239 662 212 636 q 184 611 184 566 q 184 534 200 505 q 216 476 239 450 q 262 425 284 401 l 460 211 q 478 254 482 295 q 485 336 487 364 q 488 381 498 390 q 507 398 534 398 q 561 398 570 385 q 579 372 579 347 q 579 324 574 290 q 569 256 558 218 q 546 180 525 144 l 610 54 q 614 49 616 44 q 617 39 617 35 q 617 19 602 6 q 587 -8 569 -8 q 562 -8 556 -5 q 549 -2 542 5 l 473 77 q 437 39 388 14 q 338 -10 270 -10 z m 283 83 q 328 83 359 100 q 390 116 410 142 l 216 346 q 197 334 178 316 q 160 298 148 274 q 135 250 135 216 q 135 180 152 150 q 169 119 202 101 q 235 83 283 83 z"},"_":{"x_min":0,"x_max":322,"ha":322,"o":"m 1 -89 q -14 -89 -24 -76 q -33 -64 -33 -45 q -33 -26 -24 -13 q -14 0 1 0 l 321 0 q 335 0 346 -13 q 357 -26 357 -45 q 357 -64 346 -76 q 335 -89 321 -89 z"},"v":{"x_min":0,"x_max":457,"ha":457,"o":"m 229 -10 q 212 -10 198 -4 q 185 1 181 11 l 13 416 q 12 419 10 424 q 9 429 9 433 q 9 446 20 456 q 32 466 48 472 q 63 478 77 478 q 87 478 96 474 q 106 469 109 459 l 229 143 l 347 457 q 351 467 359 472 q 367 478 379 478 q 390 478 406 472 q 423 466 436 456 q 448 445 448 433 q 448 428 447 424 q 446 420 444 416 l 277 11 q 272 1 258 -4 q 245 -10 229 -10 z"},"O":{"x_min":0,"x_max":566,"ha":566,"o":"m 283 -6 q 219 -6 168 16 q 118 38 88 87 q 59 136 59 217 l 59 508 q 59 589 88 638 q 118 687 168 709 q 219 731 283 731 q 346 731 397 709 q 448 687 478 638 q 508 589 508 508 l 508 217 q 508 136 478 87 q 448 38 397 16 q 346 -6 283 -6 z m 283 88 q 338 88 370 120 q 402 151 402 217 l 402 508 q 402 574 370 606 q 339 637 283 637 q 227 637 196 606 q 164 574 164 508 l 164 217 q 164 151 196 120 q 227 88 283 88 z"},"(":{"x_min":0,"x_max":325,"ha":325,"o":"m 254 -20 q 216 -20 180 -10 q 144 1 116 24 q 87 46 70 80 q 53 114 53 160 l 53 574 q 53 616 70 652 q 87 687 116 714 q 145 740 182 754 q 218 768 256 768 q 286 768 297 754 q 308 741 308 722 q 308 701 298 688 q 289 675 274 675 q 237 675 212 660 q 186 645 172 622 q 159 599 159 574 l 159 160 q 159 125 177 106 q 195 87 222 80 q 249 73 274 73 q 295 73 302 58 q 308 43 308 26 q 308 6 298 -7 q 287 -20 254 -20 z"},"C":{"x_min":0,"x_max":541,"ha":541,"o":"m 280 -6 q 220 -6 170 16 q 119 38 89 87 q 59 136 59 217 l 59 508 q 59 589 89 638 q 119 687 170 709 q 221 731 281 731 q 350 731 400 708 q 451 684 480 644 q 508 603 508 550 q 508 516 495 506 q 482 495 455 495 q 431 495 417 504 q 403 512 402 530 q 401 543 397 561 q 393 579 382 596 q 370 614 347 626 q 324 637 284 637 q 226 637 195 606 q 164 574 164 508 l 164 217 q 164 151 196 120 q 227 88 287 88 q 325 88 348 100 q 370 111 381 128 q 392 146 396 166 q 400 185 402 201 q 403 220 418 228 q 432 236 454 236 q 482 236 495 225 q 508 214 508 181 q 508 127 480 84 q 451 42 400 18 q 349 -6 280 -6 z"},"W":{"x_min":0,"x_max":845,"ha":845,"o":"m 280 -6 q 258 -6 238 3 q 218 12 212 30 l 14 678 q 13 683 13 688 q 13 701 23 710 q 33 720 48 726 q 64 731 79 731 q 92 731 102 726 q 113 721 116 709 l 279 139 l 370 497 q 374 513 390 520 q 405 528 422 528 q 441 528 456 520 q 471 513 475 497 l 566 139 l 729 709 q 733 721 743 726 q 753 731 766 731 q 781 731 796 726 q 811 720 822 710 q 832 701 832 688 q 832 683 830 678 l 633 30 q 627 12 608 3 q 588 -6 565 -6 q 543 -6 523 3 q 503 12 499 30 l 422 332 l 347 30 q 342 12 322 3 q 303 -6 280 -6 z"},"A":{"x_min":0,"x_max":561,"ha":561,"o":"m 79 0 q 65 0 49 6 q 33 12 23 22 q 13 31 13 44 q 13 47 14 53 l 213 701 q 219 719 238 728 q 258 737 280 737 q 303 737 322 728 q 342 719 348 701 l 546 53 q 548 47 548 44 q 548 32 538 22 q 527 12 512 6 q 496 0 481 0 q 468 0 458 5 q 449 10 445 22 l 404 164 l 156 164 l 116 22 q 113 10 102 5 q 92 0 79 0 z m 180 249 l 380 249 l 280 592 z"},"f":{"x_min":0,"x_max":327,"ha":327,"o":"m 107 0 q 85 0 70 10 q 56 19 56 34 l 56 565 q 56 619 80 662 q 104 706 144 731 q 184 756 232 756 l 279 756 q 299 756 310 742 q 320 728 320 711 q 320 693 310 680 q 299 666 279 666 l 252 666 q 226 666 206 654 q 185 642 173 622 q 161 601 161 575 l 161 474 l 290 474 q 305 474 312 462 q 320 450 320 435 q 320 420 312 408 q 305 396 290 396 l 161 396 l 161 34 q 161 19 145 10 q 129 0 107 0 z"},"Q":{"x_min":0,"x_max":566,"ha":566,"o":"m 283 -109 q 270 -109 259 -100 q 248 -91 248 -74 l 248 -4 q 193 1 150 25 q 107 49 83 96 q 59 144 59 217 l 59 508 q 59 590 88 638 q 118 687 168 709 q 219 731 283 731 q 346 731 397 709 q 448 687 478 638 q 508 590 508 508 l 508 217 q 508 144 484 96 q 459 49 416 25 q 373 1 319 -4 l 319 -74 q 319 -91 308 -100 q 296 -109 283 -109 z m 248 94 l 248 155 q 248 173 259 181 q 270 189 283 189 q 296 189 308 181 q 319 173 319 155 l 319 95 q 358 103 380 133 q 402 163 402 217 l 402 508 q 402 574 370 606 q 338 637 283 637 q 227 637 196 606 q 164 574 164 508 l 164 217 q 164 163 186 133 q 208 103 248 94 z"},"w":{"x_min":0,"x_max":682,"ha":682,"o":"m 210 -10 q 196 -10 185 -5 q 174 0 169 13 l 14 417 q 12 422 10 426 q 9 431 9 434 q 9 447 20 456 q 31 466 46 472 q 62 478 76 478 q 87 478 96 474 q 105 469 108 459 l 219 148 l 304 424 q 309 439 319 443 q 329 447 341 447 q 354 447 364 443 q 374 439 379 424 l 462 146 l 574 459 q 580 478 605 478 q 619 478 634 472 q 650 467 661 457 q 672 447 672 433 q 672 430 671 425 q 670 420 668 417 l 513 11 q 509 -1 498 -6 q 486 -10 472 -10 q 456 -10 444 -5 q 433 0 429 10 l 341 268 l 255 13 q 251 1 238 -4 q 226 -10 210 -10 z"},"-":{"x_min":0,"x_max":407,"ha":407,"o":"m 73 196 q 58 196 48 208 q 39 221 39 240 q 39 259 48 272 q 58 285 73 285 l 333 285 q 347 285 358 272 q 369 259 369 240 q 369 221 358 208 q 347 196 333 196 z"},"E":{"x_min":0,"x_max":522,"ha":522,"o":"m 113 0 q 96 0 81 9 q 66 18 66 35 l 66 696 q 66 713 81 722 q 96 731 113 731 l 469 731 q 488 731 496 716 q 504 701 504 685 q 504 666 495 652 q 486 637 469 637 l 172 637 l 172 408 l 326 408 q 343 408 352 395 q 361 382 361 365 q 361 351 353 338 q 345 324 326 324 l 172 324 l 172 94 l 469 94 q 486 94 495 80 q 504 66 504 46 q 504 30 496 15 q 488 0 469 0 z"},"s":{"x_min":0,"x_max":406,"ha":406,"o":"m 200 -8 q 151 -8 112 4 q 73 16 50 34 q 28 53 28 72 q 28 81 32 92 q 37 103 46 111 q 54 119 64 119 q 77 119 92 108 q 106 96 130 84 q 154 73 197 73 q 247 73 264 90 q 282 107 282 127 q 282 153 264 168 q 247 182 220 191 q 192 200 161 208 q 130 217 102 231 q 75 245 58 270 q 40 295 40 336 q 40 370 57 404 q 74 437 112 458 q 149 480 212 480 q 250 480 284 472 q 318 464 340 450 q 362 437 362 421 q 362 414 357 402 q 352 389 344 380 q 335 370 322 370 q 312 370 297 378 q 282 385 262 392 q 242 399 213 399 q 184 399 166 390 q 149 380 141 367 q 133 354 133 341 q 133 319 150 307 q 167 295 195 287 q 223 279 254 270 q 285 262 312 246 q 340 230 358 203 q 375 176 375 131 q 375 68 330 30 q 284 -8 200 -8 z"},">":{"x_min":0,"x_max":414,"ha":414,"o":"m 90 61 q 74 61 58 75 q 43 89 43 110 q 43 131 57 139 l 267 277 l 57 415 q 43 424 43 444 q 43 466 58 480 q 74 494 90 494 q 100 494 105 490 l 368 318 q 379 310 384 298 q 390 287 390 277 q 390 267 384 256 q 379 244 368 237 l 105 65 q 100 61 90 61 z"},"l":{"x_min":0,"x_max":232,"ha":232,"o":"m 116 0 q 93 0 78 11 q 64 22 64 35 l 64 722 q 64 737 78 746 q 93 756 116 756 q 138 756 154 746 q 169 737 169 722 l 169 35 q 169 22 154 11 q 138 0 116 0 z"},"8":{"x_min":0,"x_max":522,"ha":522,"o":"m 261 -6 q 198 -6 147 14 q 96 35 66 80 q 36 126 36 200 l 36 212 q 36 289 68 334 q 101 380 152 399 q 110 415 84 453 q 59 491 59 555 q 59 619 86 658 q 112 697 158 714 q 203 731 261 731 q 320 731 366 714 q 411 697 438 658 q 464 619 464 555 q 464 491 438 453 q 412 415 371 399 q 423 380 454 334 q 485 289 485 212 l 485 200 q 485 126 456 80 q 426 35 375 14 q 324 -6 261 -6 z m 262 82 q 318 82 349 114 q 380 146 380 211 l 380 229 q 380 293 348 324 q 317 354 261 354 q 206 354 174 324 q 142 293 142 229 l 142 211 q 142 144 174 113 q 207 82 262 82 z m 261 442 q 309 442 336 466 q 362 489 362 543 q 362 596 336 620 q 309 643 261 643 q 214 643 188 620 q 161 596 161 543 q 161 489 188 466 q 214 442 261 442 z"},"\\":{"x_min":0,"x_max":364,"ha":364,"o":"m 302 -1 q 291 -1 282 6 q 272 12 269 23 l 24 705 q 22 711 22 717 q 22 732 34 744 q 47 755 63 755 q 74 755 83 750 q 92 745 96 733 l 341 48 q 342 45 342 42 q 342 40 342 37 q 342 23 330 11 q 319 -1 302 -1 z"},"e":{"x_min":0,"x_max":475,"ha":475,"o":"m 269 -8 q 201 -8 149 17 q 97 42 67 86 q 37 131 37 191 l 37 286 q 37 339 66 383 q 94 427 141 454 q 188 480 245 480 q 299 480 344 456 q 389 433 416 391 q 444 349 444 295 q 444 253 431 235 q 418 217 397 213 q 376 209 353 209 l 142 209 l 142 186 q 142 136 178 106 q 215 77 272 77 q 307 77 329 87 q 351 97 366 106 q 381 115 394 115 q 407 115 416 107 q 425 99 430 88 q 435 77 435 68 q 435 53 414 35 q 394 17 357 4 q 320 -8 269 -8 z m 142 274 l 308 274 q 330 274 338 280 q 345 286 345 304 q 345 330 332 352 q 319 375 296 388 q 273 400 244 400 q 216 400 193 388 q 170 376 156 355 q 142 334 142 306 z"},"b":{"x_min":0,"x_max":506,"ha":506,"o":"m 293 -8 q 246 -8 208 16 q 171 39 155 70 l 155 35 q 155 22 141 11 q 127 0 107 0 q 85 0 70 11 q 56 22 56 35 l 56 722 q 56 737 70 746 q 85 756 107 756 q 130 756 146 746 q 161 737 161 722 l 161 404 q 177 433 210 456 q 243 480 290 480 q 339 480 380 454 q 420 427 444 382 q 469 338 469 283 l 469 191 q 469 139 444 94 q 420 48 380 20 q 340 -8 293 -8 z m 263 85 q 290 85 313 100 q 336 115 350 140 q 364 165 364 191 l 364 283 q 364 309 350 333 q 336 357 313 372 q 290 387 262 387 q 237 387 214 374 q 191 362 176 339 q 161 316 161 283 l 161 168 q 161 156 174 136 q 188 117 211 101 q 234 85 263 85 z"},"%":{"x_min":0,"x_max":779,"ha":779,"o":"m 210 -35 q 193 -35 182 -24 q 171 -12 171 2 q 171 10 175 17 l 543 752 q 551 770 572 770 q 587 770 600 760 q 614 749 614 732 q 614 723 611 716 l 244 -16 q 240 -25 230 -30 q 221 -35 210 -35 z m 168 337 q 111 337 72 365 q 33 393 33 460 l 33 608 q 33 675 72 703 q 111 731 168 731 q 207 731 238 719 q 268 707 286 680 q 304 653 304 608 l 304 460 q 304 415 286 388 q 268 361 238 349 q 207 337 168 337 z m 169 401 q 198 401 215 416 q 232 430 232 460 l 232 608 q 232 638 215 652 q 198 667 169 667 q 139 667 122 652 q 106 638 106 608 l 106 460 q 106 430 122 416 q 139 401 169 401 z m 611 -3 q 553 -3 514 25 q 475 53 475 120 l 475 268 q 475 335 514 363 q 553 391 611 391 q 649 391 680 379 q 710 367 728 340 q 746 313 746 268 l 746 120 q 746 75 728 48 q 710 21 680 9 q 649 -3 611 -3 z m 611 61 q 640 61 657 76 q 674 90 674 120 l 674 268 q 674 298 657 312 q 640 327 611 327 q 582 327 566 312 q 549 298 549 268 l 549 120 q 549 90 566 76 q 582 61 611 61 z"},"m":{"x_min":0,"x_max":794,"ha":794,"o":"m 107 0 q 84 0 70 11 q 55 22 55 35 l 55 440 q 55 455 70 464 q 84 474 107 474 q 126 474 140 464 q 154 455 154 440 l 154 404 q 171 433 204 456 q 237 480 287 480 q 332 480 366 452 q 401 424 418 380 q 444 431 485 456 q 526 480 569 480 q 614 480 654 457 q 693 434 718 390 q 743 346 743 283 l 743 35 q 743 22 728 11 q 712 0 690 0 q 669 0 654 11 q 638 22 638 35 l 638 283 q 638 317 624 340 q 611 364 590 376 q 568 388 545 388 q 521 388 500 376 q 479 363 465 340 q 451 318 451 285 l 451 34 q 451 16 434 8 q 418 0 398 0 q 380 0 363 8 q 346 16 346 34 l 346 284 q 346 316 333 339 q 320 362 299 374 q 278 387 253 387 q 230 387 208 375 q 187 363 174 340 q 160 317 160 283 l 160 35 q 160 22 144 11 q 129 0 107 0 z"},"#":{"x_min":0,"x_max":646,"ha":646,"o":"m 167 31 q 150 31 133 42 q 116 52 116 72 l 142 232 l 58 232 q 42 232 34 243 q 26 254 26 271 q 26 288 34 300 q 42 312 56 312 l 158 312 l 181 449 l 96 449 q 80 449 72 460 q 64 471 64 488 q 64 505 72 516 q 80 528 94 528 l 196 528 l 224 690 q 226 701 239 707 q 252 713 267 713 q 286 713 301 703 q 316 693 316 671 l 291 528 l 408 528 l 435 690 q 437 701 450 707 q 464 713 478 713 q 497 713 512 703 q 527 693 527 671 l 503 528 l 588 528 q 600 528 610 517 q 621 506 621 489 q 621 472 612 460 q 602 449 590 449 l 489 449 l 465 312 l 550 312 q 562 312 573 300 q 584 289 584 272 q 584 255 574 244 q 564 232 552 232 l 450 232 l 420 57 q 418 46 404 38 q 391 31 378 31 q 367 31 355 36 q 343 41 334 50 q 326 59 326 72 l 353 232 l 238 232 l 209 58 q 206 46 193 38 q 180 31 167 31 z m 253 312 l 369 312 l 392 449 l 277 449 z"},",":{"x_min":0,"x_max":184,"ha":184,"o":"m 78 -94 q 66 -94 54 -86 q 42 -79 42 -66 q 42 -59 45 -53 l 67 0 q 51 7 42 22 q 32 36 32 54 q 32 79 50 96 q 67 114 91 114 q 115 114 133 97 q 151 80 151 54 q 151 51 150 45 q 149 39 144 26 q 139 13 129 -12 q 119 -37 102 -79 q 99 -87 92 -90 q 84 -94 78 -94 z"},"n":{"x_min":0,"x_max":512,"ha":512,"o":"m 107 0 q 84 0 70 11 q 55 22 55 35 l 55 440 q 55 455 70 464 q 84 474 107 474 q 126 474 140 464 q 154 455 154 440 l 154 404 q 169 433 204 456 q 238 480 288 480 q 335 480 374 454 q 414 427 438 382 q 462 338 462 283 l 462 35 q 462 18 446 9 q 429 0 409 0 q 391 0 374 9 q 357 18 357 35 l 357 283 q 357 309 344 333 q 330 357 307 372 q 284 387 256 387 q 232 387 210 374 q 188 362 174 339 q 160 316 160 283 l 160 35 q 160 22 144 11 q 129 0 107 0 z"},"h":{"x_min":0,"x_max":513,"ha":513,"o":"m 108 0 q 85 0 70 11 q 56 22 56 35 l 56 722 q 56 737 70 746 q 85 756 108 756 q 130 756 146 746 q 161 737 161 722 l 161 404 q 176 433 208 456 q 241 480 289 480 q 336 480 376 454 q 415 427 439 382 q 463 338 463 283 l 463 35 q 463 18 446 9 q 430 0 410 0 q 392 0 375 9 q 358 18 358 35 l 358 283 q 358 309 344 333 q 330 357 308 372 q 285 387 257 387 q 233 387 211 374 q 189 362 175 339 q 161 316 161 283 l 161 35 q 161 22 146 11 q 130 0 108 0 z"},"z":{"x_min":0,"x_max":422,"ha":422,"o":"m 59 0 q 39 0 30 12 q 21 24 21 38 q 21 50 26 61 q 32 72 39 80 l 253 387 l 63 387 q 49 387 40 400 q 30 413 30 431 q 30 449 39 462 q 48 474 63 474 l 353 474 q 367 474 378 465 q 388 456 388 437 q 388 415 372 394 l 157 87 l 370 87 q 383 87 393 74 q 403 62 403 43 q 403 26 394 13 q 385 0 370 0 z"},"B":{"x_min":0,"x_max":553,"ha":553,"o":"m 113 0 q 92 0 79 10 q 66 20 66 34 l 66 696 q 66 713 81 722 q 96 731 113 731 l 295 731 q 349 731 395 717 q 441 703 469 666 q 497 628 497 558 q 497 495 474 454 q 452 413 412 396 q 443 384 466 364 q 489 345 502 312 q 515 280 515 229 l 515 210 q 515 133 489 87 q 463 41 418 20 q 373 0 316 0 z m 171 94 l 296 94 q 350 94 380 124 q 409 153 409 218 l 409 234 q 409 300 380 327 q 350 354 296 354 l 171 354 z m 171 438 l 291 438 q 342 438 366 464 q 391 490 391 541 q 391 575 378 596 q 366 617 343 627 q 320 637 289 637 l 171 637 z"},"K":{"x_min":0,"x_max":542,"ha":542,"o":"m 119 0 q 99 0 82 9 q 66 18 66 35 l 66 697 q 66 715 82 723 q 99 731 119 731 q 139 731 156 723 q 172 715 172 697 l 172 393 l 416 716 q 427 731 446 731 q 459 731 474 723 q 488 715 498 702 q 507 690 507 676 q 507 672 505 666 q 503 660 499 655 l 307 415 l 535 68 q 541 59 541 49 q 541 36 532 24 q 523 12 508 4 q 494 -3 479 -3 q 468 -3 458 2 q 448 6 441 17 l 237 326 l 172 244 l 172 35 q 172 18 156 9 q 139 0 119 0 z"},"R":{"x_min":0,"x_max":553,"ha":553,"o":"m 460 -3 q 447 -3 436 6 q 426 15 419 28 l 272 314 l 172 314 l 172 35 q 172 18 156 9 q 139 0 119 0 q 99 0 82 9 q 66 18 66 35 l 66 697 q 66 711 76 721 q 85 731 102 731 l 292 731 q 355 731 407 712 q 459 694 490 650 q 521 605 521 527 q 521 467 502 427 q 484 387 452 364 q 421 340 381 329 l 521 66 q 523 63 524 58 q 525 54 525 51 q 525 38 515 26 q 505 13 490 5 q 476 -3 460 -3 z m 172 399 l 292 399 q 348 399 382 426 q 415 453 415 518 q 415 583 382 610 q 348 637 292 637 l 172 637 z"},"T":{"x_min":0,"x_max":506,"ha":506,"o":"m 253 0 q 233 0 216 9 q 200 18 200 35 l 200 634 l 45 634 q 29 634 20 649 q 11 664 11 683 q 11 701 19 716 q 27 731 45 731 l 460 731 q 479 731 487 716 q 495 701 495 684 q 495 664 486 649 q 478 634 460 634 l 306 634 l 306 35 q 306 18 290 9 q 273 0 253 0 z"},"P":{"x_min":0,"x_max":546,"ha":546,"o":"m 119 0 q 99 0 82 9 q 66 18 66 35 l 66 697 q 66 711 78 721 q 89 731 107 731 l 302 731 q 363 731 413 710 q 463 688 492 640 q 521 591 521 511 l 521 503 q 521 423 492 374 q 462 325 410 304 q 359 282 296 282 l 172 282 l 172 35 q 172 18 156 9 q 139 0 119 0 z m 172 366 l 296 366 q 352 366 384 398 q 415 430 415 496 l 415 508 q 415 574 384 606 q 352 637 296 637 l 172 637 z"},"|":{"x_min":0,"x_max":225,"ha":225,"o":"m 112 -21 q 90 -21 75 -10 q 60 1 60 14 l 60 734 q 60 749 75 758 q 90 768 112 768 q 134 768 150 758 q 165 749 165 734 l 165 14 q 165 1 150 -10 q 134 -21 112 -21 z"},"t":{"x_min":0,"x_max":326,"ha":326,"o":"m 228 0 q 143 0 98 38 q 53 75 53 156 l 53 657 q 53 672 70 682 q 86 691 105 691 q 124 691 141 682 q 158 672 158 657 l 158 474 l 280 474 q 294 474 302 462 q 309 450 309 435 q 309 420 302 408 q 294 396 280 396 l 158 396 l 158 156 q 158 120 174 105 q 189 90 228 90 l 262 90 q 285 90 296 76 q 308 63 308 45 q 308 28 296 14 q 285 0 262 0 z"},"M":{"x_min":0,"x_max":687,"ha":687,"o":"m 119 0 q 99 0 82 9 q 66 18 66 35 l 66 678 q 66 708 82 720 q 99 731 119 731 q 138 731 152 726 q 166 720 178 707 q 190 694 203 671 l 343 406 l 485 671 q 498 694 510 707 q 521 720 535 726 q 549 731 568 731 q 589 731 605 720 q 621 708 621 678 l 621 35 q 621 18 604 9 q 588 0 568 0 q 548 0 532 9 q 515 18 515 35 l 515 515 l 381 267 q 373 254 363 248 q 353 243 342 243 q 333 243 323 248 q 313 253 306 267 l 172 521 l 172 35 q 172 18 156 9 q 139 0 119 0 z"},"g":{"x_min":0,"x_max":465,"ha":465,"o":"m 234 -225 q 176 -225 127 -208 q 78 -192 49 -161 q 20 -130 20 -87 q 20 -47 43 -20 q 66 6 97 20 q 77 29 64 44 q 51 59 51 86 q 51 114 65 131 q 79 148 101 162 q 73 184 58 216 q 42 249 42 288 l 42 316 q 42 364 65 401 q 88 438 130 459 q 173 480 228 480 q 262 480 292 471 q 321 462 344 446 q 360 483 376 498 q 393 513 408 513 q 429 513 440 501 q 451 489 451 477 q 451 469 446 462 q 442 456 434 452 q 424 447 410 438 q 397 430 384 412 q 401 393 409 368 q 417 343 417 316 l 417 288 q 417 241 393 203 q 369 165 326 144 q 283 122 228 122 q 189 122 159 134 q 151 129 146 122 q 140 116 140 106 q 140 88 162 80 q 184 72 218 68 q 253 64 292 58 q 331 52 366 38 q 400 25 422 -2 q 444 -28 444 -74 q 444 -126 415 -160 q 386 -193 338 -209 q 291 -225 234 -225 z m 232 -155 q 281 -155 312 -134 q 342 -112 342 -77 q 342 -52 327 -38 q 312 -24 288 -17 q 264 -10 238 -7 q 211 -4 187 -1 q 159 -11 140 -30 q 120 -48 120 -76 q 120 -113 152 -134 q 183 -155 232 -155 z m 230 189 q 270 189 292 217 q 315 245 315 288 l 315 316 q 315 357 292 385 q 270 413 229 413 q 188 413 166 385 q 144 357 144 316 l 144 289 q 144 247 166 218 q 188 189 230 189 z"},"j":{"x_min":0,"x_max":215,"ha":215,"o":"m 16 -225 q -15 -225 -26 -211 q -38 -197 -38 -181 q -38 -160 -26 -148 q -14 -135 3 -135 q 26 -135 38 -122 q 49 -110 52 -88 q 55 -65 55 -36 l 55 440 q 55 455 70 464 q 84 474 106 474 q 129 474 144 464 q 160 455 160 440 l 160 -36 q 160 -91 144 -134 q 129 -177 97 -201 q 65 -225 16 -225 z m 107 593 q 82 593 64 610 q 46 627 46 648 q 46 671 64 687 q 82 703 107 703 q 132 703 150 687 q 167 671 167 648 q 167 627 150 610 q 132 593 107 593 z"},"i":{"x_min":0,"x_max":214,"ha":214,"o":"m 107 0 q 84 0 70 11 q 55 22 55 35 l 55 440 q 55 455 70 464 q 84 474 107 474 q 129 474 144 464 q 160 455 160 440 l 160 35 q 160 22 144 11 q 129 0 107 0 z m 107 593 q 81 593 63 610 q 45 627 45 648 q 45 671 63 687 q 81 703 107 703 q 132 703 150 687 q 167 671 167 648 q 167 627 150 610 q 132 593 107 593 z"},"y":{"x_min":0,"x_max":454,"ha":454,"o":"m 57 -225 q 37 -225 23 -216 q 9 -208 9 -180 q 9 -162 15 -148 q 21 -135 37 -135 q 56 -135 78 -126 q 101 -116 122 -96 q 144 -75 160 -44 q 175 -13 181 29 l 12 417 q 8 424 8 431 q 8 444 20 456 q 31 467 47 474 q 63 481 77 481 q 87 481 96 476 q 106 472 109 462 l 235 137 l 344 462 q 347 472 356 476 q 365 481 374 481 q 386 481 402 474 q 419 467 432 456 q 444 444 444 429 q 444 421 441 417 l 291 26 q 275 -17 258 -62 q 241 -106 216 -143 q 192 -180 154 -202 q 115 -225 57 -225 z"},"@":{"x_min":0,"x_max":734,"ha":734,"o":"m 334 -121 q 278 -121 226 -101 q 175 -81 134 -40 q 93 1 70 64 q 46 127 46 212 q 46 310 81 390 q 116 471 190 518 q 263 565 378 565 q 481 565 553 526 q 625 488 662 414 q 700 341 700 237 q 700 180 686 130 q 672 80 642 50 q 612 19 563 19 q 522 19 494 40 q 467 60 460 89 q 436 60 408 43 q 379 26 337 26 q 305 26 276 38 q 247 49 229 74 q 211 99 211 139 q 211 186 236 212 q 262 237 307 248 q 352 258 410 258 l 447 258 l 447 275 q 447 313 426 332 q 404 350 359 350 q 328 350 310 344 q 292 337 282 330 q 271 324 262 324 q 254 324 248 332 q 242 339 238 348 q 235 358 235 365 q 235 382 256 396 q 276 409 308 416 q 339 424 371 424 q 415 424 450 409 q 484 394 504 366 q 525 337 525 293 l 525 125 q 529 100 541 88 q 553 76 569 76 q 589 76 601 91 q 613 106 620 129 q 626 152 628 177 q 630 202 630 223 q 630 355 568 428 q 507 501 377 501 q 302 501 252 478 q 201 455 172 414 q 142 373 130 322 q 117 270 117 213 q 117 160 128 112 q 139 63 166 25 q 192 -13 236 -35 q 281 -57 346 -57 q 388 -57 414 -50 q 440 -43 456 -36 q 472 -30 483 -30 q 496 -30 503 -42 q 510 -53 510 -61 q 510 -75 493 -86 q 476 -97 448 -105 q 421 -113 390 -117 q 360 -121 334 -121 z m 354 86 q 381 86 402 98 q 424 110 437 129 q 450 148 450 167 l 450 208 l 420 208 q 383 208 356 202 q 328 196 312 182 q 297 167 297 140 q 297 112 313 99 q 329 86 354 86 z"},".":{"x_min":0,"x_max":183,"ha":183,"o":"m 92 -6 q 66 -6 49 12 q 32 30 32 54 q 32 79 49 96 q 66 114 92 114 q 116 114 134 96 q 151 79 151 54 q 151 30 134 12 q 116 -6 92 -6 z"},"p":{"x_min":0,"x_max":506,"ha":506,"o":"m 107 -225 q 85 -225 70 -214 q 56 -203 56 -190 l 56 440 q 56 455 70 464 q 85 474 106 474 q 127 474 141 464 q 155 455 155 440 l 155 404 q 172 433 206 456 q 241 480 289 480 q 339 480 380 454 q 421 427 445 382 q 469 338 469 283 l 469 191 q 469 139 444 94 q 420 48 380 20 q 340 -8 293 -8 q 248 -8 212 16 q 176 39 161 70 l 161 -190 q 161 -203 146 -214 q 130 -225 107 -225 z m 262 85 q 289 85 312 100 q 335 115 350 140 q 364 165 364 191 l 364 283 q 364 309 350 333 q 336 357 312 372 q 289 387 260 387 q 236 387 213 374 q 190 362 176 339 q 161 316 161 283 l 161 168 q 161 156 174 136 q 187 117 210 101 q 233 85 262 85 z"},"X":{"x_min":0,"x_max":530,"ha":530,"o":"m 84 -3 q 70 -3 54 4 q 38 11 27 23 q 16 35 16 49 q 16 59 23 70 l 195 366 l 28 660 q 20 674 20 686 q 20 700 30 711 q 40 722 56 728 q 71 734 86 734 q 101 734 110 726 q 120 717 126 704 l 265 448 l 404 704 q 411 717 421 726 q 431 734 444 734 q 459 734 474 728 q 490 722 500 711 q 511 700 511 686 q 511 674 503 660 l 335 366 l 508 70 q 514 59 514 49 q 514 35 503 23 q 492 11 476 4 q 461 -3 446 -3 q 435 -3 426 4 q 417 12 412 21 l 265 287 l 118 21 q 113 12 104 4 q 96 -3 84 -3 z"},"*":{"x_min":0,"x_max":460,"ha":460,"o":"m 133 347 q 125 347 114 352 q 104 356 96 364 q 88 373 88 385 q 88 398 97 408 l 170 509 l 53 543 q 41 546 35 556 q 29 566 29 579 q 29 594 40 607 q 51 620 69 620 q 70 620 73 620 q 76 619 79 618 l 196 578 l 191 696 q 192 714 204 722 q 215 731 230 731 q 245 731 256 722 q 268 714 269 696 l 264 576 l 381 618 q 387 620 393 620 q 409 620 420 606 q 430 591 430 575 q 430 564 424 555 q 418 546 405 543 l 290 513 l 367 407 q 372 400 372 386 q 372 369 358 358 q 345 347 329 347 q 323 347 315 350 q 307 352 301 361 l 230 467 l 158 360 q 153 352 147 350 q 141 347 133 347 z"},"Y":{"x_min":0,"x_max":556,"ha":556,"o":"m 278 0 q 258 0 242 9 q 225 18 225 35 l 225 288 q 225 294 222 299 l 15 672 q 13 677 12 680 q 12 684 12 687 q 12 700 23 710 q 34 719 50 725 q 65 731 79 731 q 92 731 100 725 q 107 719 113 707 l 278 390 l 442 707 q 449 719 456 725 q 464 731 477 731 q 491 731 506 725 q 522 719 533 710 q 544 700 544 687 q 544 684 544 680 q 543 677 540 672 l 334 299 q 331 294 331 288 l 331 35 q 331 18 314 9 q 298 0 278 0 z"},"c":{"x_min":0,"x_max":425,"ha":425,"o":"m 247 -8 q 175 -8 128 18 q 82 44 60 89 q 38 134 38 191 l 38 281 q 38 337 60 382 q 82 428 128 454 q 174 480 245 480 q 291 480 326 469 q 360 458 380 442 q 399 425 399 407 q 399 398 394 386 q 388 373 378 364 q 369 356 356 356 q 346 356 334 364 q 323 372 304 380 q 285 387 253 387 q 197 387 170 359 q 143 331 143 281 l 143 191 q 143 141 170 113 q 197 85 254 85 q 287 85 306 94 q 325 102 336 110 q 348 118 359 118 q 373 118 384 110 q 394 102 400 90 q 405 78 405 68 q 405 51 384 33 q 364 15 328 4 q 293 -8 247 -8 z"},"!":{"x_min":0,"x_max":214,"ha":214,"o":"m 107 188 q 91 188 78 196 q 66 204 66 220 q 66 293 63 374 q 60 455 57 536 q 54 618 54 690 q 54 713 69 726 q 84 738 107 738 q 129 738 144 726 q 160 713 160 690 q 160 618 157 536 q 154 455 151 374 q 148 293 148 220 q 148 204 134 196 q 120 188 107 188 z m 108 -6 q 82 -6 65 12 q 48 30 48 54 q 48 79 65 96 q 82 114 108 114 q 132 114 150 96 q 167 79 167 54 q 167 30 150 12 q 132 -6 108 -6 z"},"/":{"x_min":0,"x_max":481,"ha":481,"o":"m 58 -35 q 41 -35 30 -24 q 19 -12 19 2 q 19 10 23 17 l 391 752 q 399 770 420 770 q 435 770 448 760 q 462 749 462 732 q 462 723 459 716 l 92 -16 q 88 -25 78 -30 q 69 -35 58 -35 z"},"[":{"x_min":0,"x_max":326,"ha":326,"o":"m 107 -21 q 90 -21 75 -12 q 60 -3 60 14 l 60 733 q 60 750 75 759 q 90 768 107 768 l 275 768 q 292 768 300 754 q 309 739 309 722 q 309 703 300 688 q 291 674 275 674 l 166 674 l 166 73 l 275 73 q 291 73 300 59 q 309 45 309 25 q 309 8 300 -6 q 292 -21 275 -21 z"},"6":{"x_min":0,"x_max":538,"ha":538,"o":"m 275 -6 q 212 -6 161 16 q 110 38 80 87 q 50 136 50 217 l 50 508 q 50 589 80 638 q 111 687 163 709 q 215 731 280 731 q 336 731 378 716 q 419 700 446 674 q 473 648 486 616 q 499 584 499 553 q 499 527 487 518 q 475 508 449 508 q 428 508 411 516 q 394 525 394 548 q 394 576 378 596 q 362 615 336 626 q 309 637 277 637 q 220 637 188 606 q 156 574 156 508 l 156 382 q 181 413 218 426 q 254 439 295 439 q 352 439 398 420 q 444 402 472 358 q 499 313 499 235 l 499 217 q 499 136 470 87 q 440 38 389 16 q 338 -6 275 -6 z m 275 82 q 331 82 362 113 q 393 144 393 211 l 393 228 q 393 297 362 326 q 331 354 274 354 q 221 354 188 328 q 156 301 156 237 l 156 211 q 156 144 188 113 q 219 82 275 82 z"},"r":{"x_min":0,"x_max":358,"ha":358,"o":"m 106 0 q 84 0 70 11 q 55 22 55 35 l 55 440 q 55 455 70 464 q 84 474 106 474 q 126 474 140 464 q 154 455 154 440 l 154 396 q 165 417 184 436 q 202 455 227 468 q 252 480 281 480 l 313 480 q 329 480 341 466 q 353 453 353 434 q 353 415 341 401 q 329 387 313 387 l 281 387 q 251 387 223 369 q 195 351 178 318 q 160 286 160 240 l 160 35 q 160 22 144 11 q 129 0 106 0 z"},"2":{"x_min":0,"x_max":494,"ha":494,"o":"m 76 0 q 62 0 46 10 q 29 19 29 35 l 29 132 q 29 173 52 208 q 76 242 114 273 q 151 304 193 334 q 235 363 272 394 q 309 424 333 457 q 357 490 357 529 q 357 554 346 578 q 334 602 310 618 q 286 634 248 634 q 206 634 176 610 q 147 586 147 535 q 147 520 132 508 q 118 495 92 495 q 70 495 57 508 q 44 520 44 554 q 44 608 72 648 q 100 687 147 709 q 194 731 248 731 q 306 731 355 706 q 404 681 434 636 q 463 592 463 532 q 463 479 440 436 q 416 393 379 358 q 342 323 300 294 q 259 265 222 239 q 186 213 162 187 q 139 161 139 132 l 139 94 l 432 94 q 446 94 456 80 q 467 67 467 48 q 467 29 456 14 q 446 0 432 0 z"},"{":{"x_min":0,"x_max":340,"ha":340,"o":"m 266 -20 q 215 -20 170 0 q 124 20 96 56 q 67 91 67 138 q 67 148 68 168 q 70 187 73 210 q 76 234 78 257 q 81 280 82 297 q 84 314 84 320 q 84 335 75 340 q 66 344 54 346 q 42 349 33 357 q 24 365 24 386 q 24 406 33 414 q 42 422 54 424 q 66 427 75 432 q 84 436 84 449 q 84 457 82 476 q 79 496 76 520 q 72 543 70 565 q 67 587 67 599 q 67 632 84 662 q 100 693 128 716 q 157 740 193 754 q 229 768 267 768 q 300 768 312 753 q 325 738 325 721 q 325 706 316 692 q 307 677 291 677 q 265 677 238 666 q 210 656 192 636 q 173 615 173 585 q 173 575 176 554 q 178 534 182 510 q 185 486 188 466 q 190 446 190 438 q 190 418 177 402 q 164 387 155 384 q 165 381 178 366 q 190 351 190 331 q 190 322 188 296 q 185 271 182 241 q 178 211 176 185 q 173 159 173 149 q 173 125 186 110 q 198 95 217 86 q 236 78 256 74 q 276 71 291 71 q 305 71 312 64 q 319 56 322 46 q 325 35 325 26 q 325 3 310 -8 q 294 -20 266 -20 z"},"9":{"x_min":0,"x_max":538,"ha":538,"o":"m 259 -6 q 203 -6 162 10 q 120 25 93 51 q 66 77 52 109 q 39 141 39 172 q 39 198 52 208 q 64 217 89 217 q 110 217 127 209 q 144 201 144 177 q 144 149 160 130 q 176 110 202 99 q 229 88 261 88 q 318 88 350 120 q 383 151 383 217 l 383 343 q 358 312 322 299 q 285 286 243 286 q 187 286 140 304 q 94 323 66 368 q 39 412 39 490 l 39 508 q 39 589 69 638 q 99 687 150 709 q 200 731 263 731 q 327 731 378 709 q 429 687 459 638 q 489 589 489 508 l 489 217 q 489 136 458 87 q 427 38 375 16 q 323 -6 259 -6 z m 264 371 q 318 371 350 398 q 383 425 383 488 l 383 514 q 383 581 351 612 q 319 643 263 643 q 208 643 176 612 q 145 581 145 514 l 145 497 q 145 428 176 400 q 208 371 264 371 z"}," ":{"x_min":0,"x_max":200,"ha":200,"o":""},"I":{"x_min":0,"x_max":238,"ha":238,"o":"m 119 0 q 99 0 82 9 q 66 18 66 35 l 66 697 q 66 715 82 723 q 99 731 119 731 q 139 731 156 723 q 172 715 172 697 l 172 35 q 172 18 156 9 q 139 0 119 0 z"},"H":{"x_min":0,"x_max":593,"ha":593,"o":"m 119 0 q 99 0 82 9 q 66 18 66 35 l 66 697 q 66 715 82 723 q 99 731 119 731 q 139 731 156 723 q 172 715 172 697 l 172 421 l 421 421 l 421 697 q 421 715 438 723 q 454 731 474 731 q 494 731 510 723 q 527 715 527 697 l 527 35 q 527 18 510 9 q 494 0 474 0 q 454 0 438 9 q 421 18 421 35 l 421 337 l 172 337 l 172 35 q 172 18 156 9 q 139 0 119 0 z"},"4":{"x_min":0,"x_max":480,"ha":480,"o":"m 337 0 q 317 0 300 9 q 284 18 284 35 l 284 164 l 39 164 q 22 164 12 174 q 2 185 2 203 q 2 208 4 214 q 5 220 8 225 l 249 702 q 258 718 270 724 q 283 731 296 731 q 306 731 318 726 q 330 721 339 712 q 348 703 348 690 q 348 684 344 674 l 137 263 l 284 263 l 284 401 q 284 420 300 428 q 317 436 337 436 q 357 436 374 428 q 390 420 390 401 l 390 263 l 440 263 q 458 263 466 248 q 475 232 475 213 q 475 195 464 180 q 454 164 440 164 l 390 164 l 390 35 q 390 18 374 9 q 357 0 337 0 z"},"~":{"x_min":0,"x_max":406,"ha":406,"o":"m 284 205 q 253 205 232 213 q 210 221 190 228 q 171 236 145 236 q 124 236 110 230 q 96 223 86 216 q 76 209 66 209 q 56 209 50 216 q 44 223 41 232 q 38 240 38 245 q 38 265 48 277 q 58 289 72 296 q 86 304 101 306 q 116 309 125 309 q 154 309 174 302 q 195 294 216 286 q 237 278 263 278 q 285 278 298 284 q 312 291 322 298 q 331 304 340 304 q 351 304 357 297 q 363 290 366 282 q 368 274 368 269 q 368 248 358 236 q 349 224 335 217 q 321 210 307 208 q 293 205 284 205 z"},"D":{"x_min":0,"x_max":573,"ha":573,"o":"m 113 0 q 92 0 79 10 q 66 20 66 34 l 66 697 q 66 711 79 721 q 92 731 113 731 l 290 731 q 353 731 404 709 q 456 687 486 638 q 515 589 515 508 l 515 223 q 515 142 486 93 q 456 44 404 22 q 353 0 290 0 z m 172 94 l 290 94 q 346 94 378 126 q 409 157 409 223 l 409 508 q 409 574 378 606 q 346 637 290 637 l 172 637 z"},"^":{"x_min":0,"x_max":279,"ha":279,"o":"m 26 582 q 15 582 8 592 q 0 603 0 617 q 0 626 4 634 q 9 643 18 648 l 122 704 q 131 709 139 709 q 147 709 156 704 l 260 649 q 271 644 275 634 q 279 625 279 616 q 279 603 272 592 q 265 582 253 582 q 251 582 248 583 q 246 584 243 585 l 139 641 l 35 585 q 33 584 30 583 q 28 582 26 582 z"},"0":{"x_min":0,"x_max":549,"ha":549,"o":"m 274 -6 q 211 -6 160 16 q 109 38 80 87 q 50 136 50 217 l 50 508 q 50 589 80 638 q 109 687 160 709 q 211 731 274 731 q 337 731 388 709 q 440 687 470 638 q 499 589 499 508 l 499 217 q 499 136 470 87 q 440 38 388 16 q 337 -6 274 -6 z m 274 88 q 330 88 362 120 q 393 151 393 217 l 393 508 q 393 574 362 606 q 330 637 274 637 q 218 637 187 606 q 156 574 156 508 l 156 217 q 156 151 187 120 q 218 88 274 88 z m 275 319 q 256 319 244 332 q 232 344 232 362 q 232 381 244 392 q 256 404 275 404 q 294 404 306 392 q 317 381 317 362 q 317 344 306 332 q 294 319 275 319 z"},"F":{"x_min":0,"x_max":504,"ha":504,"o":"m 119 0 q 99 0 82 8 q 66 17 66 35 l 66 696 q 66 713 81 722 q 96 731 113 731 l 464 731 q 482 731 490 716 q 498 701 498 685 q 498 666 490 652 q 481 637 464 637 l 172 637 l 172 408 l 327 408 q 344 408 352 395 q 361 382 361 365 q 361 351 353 338 q 345 324 327 324 l 172 324 l 172 35 q 172 17 156 8 q 139 0 119 0 z"},"`":{"x_min":0,"x_max":184,"ha":184,"o":""},"k":{"x_min":0,"x_max":479,"ha":479,"o":"m 107 0 q 85 0 70 11 q 56 22 56 35 l 56 722 q 56 737 70 746 q 85 756 107 756 q 130 756 146 746 q 161 737 161 722 l 161 277 l 370 469 q 379 478 392 478 q 404 478 416 470 q 427 463 435 452 q 443 440 443 428 q 443 422 441 416 q 439 411 434 406 l 305 291 l 462 65 q 468 55 468 47 q 468 34 458 22 q 449 10 436 2 q 422 -6 409 -6 q 391 -6 381 9 l 234 226 l 161 160 l 161 35 q 161 22 146 11 q 130 0 107 0 z"},"u":{"x_min":0,"x_max":513,"ha":513,"o":"m 257 -8 q 201 -8 154 20 q 106 47 78 92 q 50 138 50 189 l 50 439 q 50 452 66 463 q 81 474 103 474 q 124 474 140 463 q 155 452 155 439 l 155 189 q 155 163 168 139 q 182 115 206 100 q 229 85 257 85 q 285 85 308 100 q 331 115 344 139 q 358 163 358 189 l 358 440 q 358 454 374 464 q 391 474 411 474 q 434 474 448 464 q 463 454 463 440 l 463 189 q 463 136 435 91 q 407 46 360 19 q 313 -8 257 -8 z"},"]":{"x_min":0,"x_max":326,"ha":326,"o":"m 51 -21 q 33 -21 25 -6 q 17 8 17 25 q 17 45 26 59 q 35 73 51 73 l 160 73 l 160 674 l 51 674 q 35 674 26 688 q 17 703 17 722 q 17 739 25 754 q 33 768 51 768 l 219 768 q 237 768 252 759 q 266 750 266 733 l 266 14 q 266 -3 252 -12 q 237 -21 219 -21 z"},"U":{"x_min":0,"x_max":582,"ha":582,"o":"m 291 -6 q 227 -6 175 16 q 123 38 93 87 q 63 136 63 217 l 63 697 q 63 715 79 723 q 95 731 116 731 q 135 731 152 723 q 169 715 169 697 l 169 217 q 169 151 201 120 q 233 88 291 88 q 348 88 381 120 q 414 151 414 217 l 414 697 q 414 715 430 723 q 446 731 467 731 q 486 731 503 723 q 520 715 520 697 l 520 217 q 520 136 490 87 q 459 38 407 16 q 355 -6 291 -6 z"},"o":{"x_min":0,"x_max":486,"ha":486,"o":"m 242 -8 q 188 -8 141 20 q 94 48 66 94 q 37 139 37 191 l 37 283 q 37 336 64 381 q 92 426 140 453 q 187 480 243 480 q 299 480 346 454 q 393 427 422 382 q 450 338 450 283 l 450 191 q 450 140 422 94 q 393 48 346 20 q 298 -8 242 -8 z m 243 85 q 271 85 294 100 q 317 115 331 140 q 345 164 345 191 l 345 283 q 345 309 331 333 q 317 357 294 372 q 271 387 243 387 q 214 387 192 372 q 169 357 156 333 q 142 309 142 283 l 142 191 q 142 164 156 140 q 169 115 192 100 q 215 85 243 85 z"},"N":{"x_min":0,"x_max":593,"ha":593,"o":"m 119 0 q 99 0 82 9 q 66 18 66 35 l 66 696 q 66 715 82 723 q 99 731 119 731 q 138 731 152 726 q 165 720 176 707 q 187 694 199 671 l 421 238 l 421 697 q 421 715 438 723 q 454 731 474 731 q 494 731 510 723 q 527 715 527 697 l 527 35 q 527 18 510 9 q 494 0 474 0 q 454 0 438 10 q 422 20 411 39 l 172 494 l 172 35 q 172 18 156 9 q 139 0 119 0 z"},"+":{"x_min":0,"x_max":443,"ha":443,"o":"m 222 46 q 204 46 190 56 q 177 65 177 80 l 177 196 l 61 196 q 46 196 36 208 q 27 221 27 240 q 27 259 36 272 q 46 285 61 285 l 177 285 l 177 400 q 177 413 190 424 q 204 435 222 435 q 242 435 254 424 q 266 413 266 400 l 266 285 l 381 285 q 395 285 406 272 q 417 259 417 240 q 417 221 406 208 q 395 196 381 196 l 266 196 l 266 80 q 266 65 254 56 q 242 46 222 46 z"},"G":{"x_min":0,"x_max":555,"ha":555,"o":"m 283 -6 q 219 -6 168 16 q 118 38 88 87 q 59 136 59 217 l 59 508 q 59 589 88 638 q 118 687 168 709 q 219 731 280 731 q 348 731 399 708 q 450 685 479 644 q 508 603 508 546 q 508 516 494 506 q 481 495 455 495 q 434 495 418 502 q 403 510 402 530 q 399 559 388 584 q 377 608 352 622 q 327 637 283 637 q 227 637 196 606 q 164 574 164 508 l 164 217 q 164 151 196 120 q 227 88 283 88 q 338 88 370 120 q 402 151 402 217 l 402 299 l 301 299 q 285 299 276 312 q 267 325 267 342 q 267 357 276 370 q 285 384 301 384 l 473 384 q 490 384 499 374 q 508 363 508 348 l 508 217 q 508 136 478 87 q 448 38 397 16 q 346 -6 283 -6 z"},"q":{"x_min":0,"x_max":506,"ha":506,"o":"m 399 -225 q 377 -225 361 -214 q 345 -203 345 -190 l 345 70 q 331 39 294 16 q 258 -8 213 -8 q 166 -8 126 20 q 86 48 62 94 q 37 139 37 191 l 37 283 q 37 338 61 382 q 85 427 126 454 q 167 480 217 480 q 265 480 300 456 q 335 433 351 404 l 351 440 q 351 455 365 464 q 379 474 400 474 q 421 474 436 464 q 450 455 450 440 l 450 -190 q 450 -203 436 -214 q 421 -225 399 -225 z m 244 85 q 274 85 296 101 q 319 117 332 136 q 345 156 345 168 l 345 283 q 345 316 330 339 q 316 362 293 374 q 270 387 246 387 q 217 387 194 372 q 170 357 156 333 q 142 309 142 283 l 142 191 q 142 165 156 140 q 171 115 194 100 q 217 85 244 85 z"},"d":{"x_min":0,"x_max":506,"ha":506,"o":"m 213 -8 q 166 -8 126 20 q 86 48 62 94 q 37 139 37 191 l 37 283 q 37 338 62 382 q 86 427 126 454 q 166 480 215 480 q 263 480 296 456 q 329 433 345 404 l 345 722 q 345 737 361 746 q 377 756 399 756 q 421 756 436 746 q 450 737 450 722 l 450 35 q 450 22 436 11 q 421 0 399 0 q 380 0 366 11 q 351 22 351 35 l 351 70 q 336 39 298 16 q 260 -8 213 -8 z m 243 85 q 272 85 295 101 q 318 117 332 136 q 345 156 345 168 l 345 283 q 345 316 330 339 q 315 362 292 374 q 269 387 244 387 q 216 387 192 372 q 169 357 156 333 q 142 309 142 283 l 142 191 q 142 165 156 140 q 169 115 192 100 q 215 85 243 85 z"},"1":{"x_min":0,"x_max":267,"ha":267,"o":"m 153 0 q 133 0 116 9 q 100 18 100 35 l 100 591 l 65 547 q 59 542 54 540 q 48 537 43 537 q 27 537 17 550 q 7 564 7 580 q 7 592 13 603 q 19 614 28 621 l 132 721 q 137 726 144 729 q 150 732 159 732 q 176 732 191 723 q 206 714 206 697 l 206 35 q 206 18 190 9 q 173 0 153 0 z"},"5":{"x_min":0,"x_max":495,"ha":495,"o":"m 246 -6 q 174 -6 124 19 q 73 44 47 84 q 21 125 21 171 q 21 200 35 210 q 49 220 73 220 q 106 220 116 208 q 127 196 127 178 q 127 150 142 130 q 158 109 185 98 q 212 88 244 88 q 300 88 332 118 q 364 149 364 214 l 364 233 q 364 297 332 328 q 300 359 245 359 l 101 359 q 74 359 64 370 q 55 382 55 400 q 55 407 56 412 q 56 418 57 424 l 80 696 q 82 712 88 722 q 93 731 104 731 l 401 731 q 418 731 426 716 q 434 702 434 684 q 434 666 426 652 q 418 637 401 637 l 170 637 l 156 443 l 245 443 q 309 443 360 423 q 410 403 440 356 q 470 310 470 233 l 470 214 q 470 134 440 86 q 409 37 358 16 q 308 -6 246 -6 z"}}}
